#Los estados o atributos de una clase son objetos

@startuml pou

class Pou
{
    - color 
    - tamaño
    - porcentajeSalud
    +Comer ()
    +Cagar ()
    +Duchar ()
    +Enfermar ()
    +Dormir ()
}

class Pelota
class Carro
class Comida
class Higiene
class Moneda
class Juego 
class Medicina
class Ropa
class Caca
class Patineta
class Mascota
class Telefono
class Vida

Pou o-- Juego
Juego o-- Moneda
Comida o-- Moneda
Pou o-- Ropa
Pou o-- Medicina
Ropa o-- Moneda
Medicina o-- Moneda
Pou o-- Comida

Juego <|-- Pelota
Carro --|> Juego
Caca --|> Moneda
Patineta --|> Juego
Higiene --|> Moneda
Juego --|> Moneda

Pou *-- Higiene
Pou *-- Mascota
Pou *-- Caca
Telefono *-- Juego
Pou *-- Telefono
Pou *-- Vida 

@enduml

